<svg width="8" height="8" viewBox="0 0 8 8" fill="none" xmlns="http://www.w3.org/2000/svg">
    <g clip-path="url(#clip0_40_17)">
        <path
            d="M0.0817871 2.54098V2.68679C0.165967 2.68679 0.226471 2.69992 0.2633 2.72619C0.300129 2.75246 0.318543 2.79581 0.318543 2.85623V5.18121C0.318543 5.24163 0.300129 5.28498 0.2633 5.31125C0.226471 5.33752 0.165967 5.35066 0.0817871 5.35066V5.49646H1.02092C1.50758 5.49646 1.75092 5.21536 1.75092 4.65316V3.38428C1.75092 2.82208 1.50758 2.54098 1.02092 2.54098H0.0817871ZM1.02092 5.33883H0.760487V2.69861H1.02092C1.11036 2.69861 1.18218 2.73355 1.23637 2.80343C1.29003 2.87278 1.31686 2.96394 1.31686 3.07691V4.96053C1.31686 5.07613 1.29003 5.16807 1.23637 5.23638C1.18218 5.30468 1.11036 5.33883 1.02092 5.33883ZM2.03108 2.54098V2.68679C2.11526 2.68679 2.17576 2.69992 2.21259 2.72619C2.24942 2.75246 2.26783 2.79581 2.26783 2.85623V4.35368C2.26783 4.4141 2.24942 4.45745 2.21259 4.48372C2.17576 4.50999 2.11526 4.52312 2.03108 4.52312V4.66893H3.19907C3.26747 4.66893 3.31614 4.67497 3.34507 4.68705C3.37401 4.69861 3.38979 4.71753 3.39242 4.7438H3.52264L3.68442 4.10542L3.55421 4.06995C3.50686 4.19605 3.46135 4.29141 3.41768 4.35604C3.37454 4.42014 3.31929 4.4627 3.25195 4.48372C3.18513 4.50473 3.09385 4.51524 2.9781 4.51524H2.69794V3.66801H2.98205C3.08464 3.66801 3.13594 3.73631 3.13594 3.87292H3.26221V3.27394H3.13594C3.13594 3.43419 3.08464 3.51432 2.98205 3.51432H2.69794V2.69467H3.10832C3.22669 2.69467 3.31798 2.7078 3.38216 2.73407C3.44688 2.76035 3.49423 2.81105 3.52422 2.88618C3.55473 2.96079 3.57788 3.07034 3.59367 3.21483H3.72388V2.45823H3.58972C3.5792 2.48976 3.55421 2.5113 3.51475 2.52286C3.47529 2.53494 3.40952 2.54098 3.31745 2.54098H2.03108ZM4.11848 2.85623V4.35368C4.11848 4.4141 4.10006 4.45745 4.06323 4.48372C4.0264 4.50999 3.9659 4.52312 3.88172 4.52312V4.66893H4.58015L5.05761 3.22665L5.46404 4.66893H6.1822V4.53494C6.09276 4.53494 6.03094 4.5226 5.99674 4.4979C5.96254 4.47268 5.94544 4.42855 5.94544 4.3655V2.85623C5.94544 2.79318 5.96254 2.74931 5.99674 2.72462C6.03094 2.6994 6.09276 2.68679 6.1822 2.68679V2.54098H5.3062V2.68679C5.39564 2.68679 5.45746 2.6994 5.49166 2.72462C5.52586 2.74931 5.54296 2.79318 5.54296 2.85623V4.34185L5.04577 2.54098H4.88399L4.2921 4.34579V2.85623C4.2921 2.79318 4.3092 2.74931 4.34339 2.72462C4.37759 2.6994 4.43941 2.68679 4.52885 2.68679V2.54098H3.88172V2.68679C3.97116 2.68679 4.03298 2.6994 4.06718 2.72462C4.10138 2.74931 4.11848 2.79318 4.11848 2.85623ZM7.19946 4.72804C7.44148 4.72804 7.62825 4.65448 7.75978 4.50736C7.89131 4.36024 7.95708 4.1527 7.95708 3.88474V3.32517C7.95708 2.76297 7.70454 2.48187 7.19946 2.48187C6.95218 2.48187 6.76278 2.55412 6.63125 2.69861C6.49971 2.8431 6.43395 3.05195 6.43395 3.32517V3.88474C6.43395 4.16321 6.49919 4.37338 6.62967 4.51524C6.75962 4.6571 6.94955 4.72804 7.19946 4.72804ZM7.19946 2.63556C7.29416 2.63556 7.37176 2.6705 7.43227 2.74038C7.49277 2.80973 7.52303 2.89958 7.52303 3.00992V4.19605C7.52303 4.30639 7.49277 4.39702 7.43227 4.46795C7.37176 4.53889 7.29416 4.57435 7.19946 4.57435C7.10739 4.57435 7.03057 4.53836 6.96902 4.46638C6.90693 4.39387 6.87589 4.30376 6.87589 4.19605V3.00992C6.87589 2.89695 6.90562 2.80632 6.96507 2.73802C7.024 2.66971 7.10213 2.63556 7.19946 2.63556Z"
            fill="#FED8E5" />
        <path
            d="M0.780029 6.21365C1.14231 6.737 1.62631 7.16475 2.19052 7.46021C2.75473 7.75568 3.3823 7.91003 4.01938 7.91003C4.65645 7.91003 5.28402 7.75568 5.84823 7.46021C6.41244 7.16475 6.89645 6.737 7.25872 6.21365H6.98435C6.64456 6.68116 6.19875 7.06168 5.68341 7.32406C5.16806 7.58643 4.59783 7.72322 4.01938 7.72322C3.44092 7.72322 2.87069 7.58643 2.35534 7.32406C1.84 7.06168 1.39419 6.68116 1.0544 6.21365H0.780029ZM0.780029 1.74093C1.14231 1.21759 1.62631 0.789833 2.19052 0.494368C2.75473 0.198902 3.3823 0.0445482 4.01938 0.0445482C4.65645 0.0445482 5.28402 0.198902 5.84823 0.494368C6.41244 0.789833 6.89645 1.21759 7.25872 1.74093H6.98435C6.64456 1.27342 6.19875 0.892906 5.68341 0.630527C5.16806 0.368148 4.59783 0.231361 4.01938 0.231361C3.44092 0.231361 2.87069 0.368148 2.35534 0.630527C1.84 0.892906 1.39419 1.27342 1.0544 1.74093H0.780029Z"
            fill="#FED8E5" />
    </g>
    <defs>
        <clipPath id="clip0_40_17">
            <rect width="8" height="8" fill="white" transform="matrix(1 0 0 -1 0 8)" />
        </clipPath>
    </defs>
</svg>
    
